<?xml version="1.0" encoding="utf-8" standalone="no"?>
<!DOCTYPE svg PUBLIC "-//W3C//DTD SVG 1.1//EN"
  "http://www.w3.org/Graphics/SVG/1.1/DTD/svg11.dtd">
<svg xmlns:xlink="http://www.w3.org/1999/xlink" width="871.92pt" height="614.16pt" viewBox="0 0 871.92 614.16" xmlns="http://www.w3.org/2000/svg" version="1.1">
 <metadata>
  <rdf:RDF xmlns:dc="http://purl.org/dc/elements/1.1/" xmlns:cc="http://creativecommons.org/ns#" xmlns:rdf="http://www.w3.org/1999/02/22-rdf-syntax-ns#">
   <cc:Work>
    <dc:type rdf:resource="http://purl.org/dc/dcmitype/StillImage"/>
    <dc:date>1980-01-01T00:00:00+00:00</dc:date>
    <dc:format>image/svg+xml</dc:format>
    <dc:creator>
     <cc:Agent>
      <dc:title>Matplotlib v3.5.2, https://matplotlib.org/</dc:title>
     </cc:Agent>
    </dc:creator>
   </cc:Work>
  </rdf:RDF>
 </metadata>
 <defs>
  <style type="text/css">*{stroke-linejoin: round; stroke-linecap: butt}</style>
 </defs>
 <g id="figure_1">
  <g id="patch_1">
   <path d="M 0 614.16 
L 871.92 614.16 
L 871.92 0 
L 0 0 
z
" style="fill: #ffffff"/>
  </g>
  <g id="axes_1">
   <g id="patch_2">
    <path d="M 108.99 546.6024 
L 784.728 546.6024 
L 784.728 73.6992 
L 108.99 73.6992 
z
" style="fill: #ffffff"/>
   </g>
   <g id="matplotlib.axis_1">
    <g id="xtick_1">
     <g id="line2d_1">
      <defs>
       <path id="mfac0355877" d="M 0 0 
L 0 3.5 
" style="stroke: #000000; stroke-width: 0.8"/>
      </defs>
      <g>
       <use xlink:href="#mfac0355877" x="164.133862" y="546.6024" style="stroke: #000000; stroke-width: 0.8"/>
      </g>
     </g>
     <g id="text_1">
      <!-- −548 -->
      <g transform="translate(122.933081 576.397713)scale(0.3 -0.3)">
       <defs>
        <path id="DejaVuSans-2212" d="M 678 2272 
L 4684 2272 
L 4684 1741 
L 678 1741 
L 678 2272 
z
" transform="scale(0.015625)"/>
        <path id="DejaVuSans-35" d="M 691 4666 
L 3169 4666 
L 3169 4134 
L 1269 4134 
L 1269 2991 
Q 1406 3038 1543 3061 
Q 1681 3084 1819 3084 
Q 2600 3084 3056 2656 
Q 3513 2228 3513 1497 
Q 3513 744 3044 326 
Q 2575 -91 1722 -91 
Q 1428 -91 1123 -41 
Q 819 9 494 109 
L 494 744 
Q 775 591 1075 516 
Q 1375 441 1709 441 
Q 2250 441 2565 725 
Q 2881 1009 2881 1497 
Q 2881 1984 2565 2268 
Q 2250 2553 1709 2553 
Q 1456 2553 1204 2497 
Q 953 2441 691 2322 
L 691 4666 
z
" transform="scale(0.015625)"/>
        <path id="DejaVuSans-34" d="M 2419 4116 
L 825 1625 
L 2419 1625 
L 2419 4116 
z
M 2253 4666 
L 3047 4666 
L 3047 1625 
L 3713 1625 
L 3713 1100 
L 3047 1100 
L 3047 0 
L 2419 0 
L 2419 1100 
L 313 1100 
L 313 1709 
L 2253 4666 
z
" transform="scale(0.015625)"/>
        <path id="DejaVuSans-38" d="M 2034 2216 
Q 1584 2216 1326 1975 
Q 1069 1734 1069 1313 
Q 1069 891 1326 650 
Q 1584 409 2034 409 
Q 2484 409 2743 651 
Q 3003 894 3003 1313 
Q 3003 1734 2745 1975 
Q 2488 2216 2034 2216 
z
M 1403 2484 
Q 997 2584 770 2862 
Q 544 3141 544 3541 
Q 544 4100 942 4425 
Q 1341 4750 2034 4750 
Q 2731 4750 3128 4425 
Q 3525 4100 3525 3541 
Q 3525 3141 3298 2862 
Q 3072 2584 2669 2484 
Q 3125 2378 3379 2068 
Q 3634 1759 3634 1313 
Q 3634 634 3220 271 
Q 2806 -91 2034 -91 
Q 1263 -91 848 271 
Q 434 634 434 1313 
Q 434 1759 690 2068 
Q 947 2378 1403 2484 
z
M 1172 3481 
Q 1172 3119 1398 2916 
Q 1625 2713 2034 2713 
Q 2441 2713 2670 2916 
Q 2900 3119 2900 3481 
Q 2900 3844 2670 4047 
Q 2441 4250 2034 4250 
Q 1625 4250 1398 4047 
Q 1172 3844 1172 3481 
z
" transform="scale(0.015625)"/>
       </defs>
       <use xlink:href="#DejaVuSans-2212"/>
       <use xlink:href="#DejaVuSans-35" x="83.789062"/>
       <use xlink:href="#DejaVuSans-34" x="147.412109"/>
       <use xlink:href="#DejaVuSans-38" x="211.035156"/>
      </g>
     </g>
    </g>
    <g id="xtick_2">
     <g id="line2d_2">
      <g>
       <use xlink:href="#mfac0355877" x="290.440998" y="546.6024" style="stroke: #000000; stroke-width: 0.8"/>
      </g>
     </g>
     <g id="text_2">
      <!-- −546 -->
      <g transform="translate(249.240217 576.397713)scale(0.3 -0.3)">
       <defs>
        <path id="DejaVuSans-36" d="M 2113 2584 
Q 1688 2584 1439 2293 
Q 1191 2003 1191 1497 
Q 1191 994 1439 701 
Q 1688 409 2113 409 
Q 2538 409 2786 701 
Q 3034 994 3034 1497 
Q 3034 2003 2786 2293 
Q 2538 2584 2113 2584 
z
M 3366 4563 
L 3366 3988 
Q 3128 4100 2886 4159 
Q 2644 4219 2406 4219 
Q 1781 4219 1451 3797 
Q 1122 3375 1075 2522 
Q 1259 2794 1537 2939 
Q 1816 3084 2150 3084 
Q 2853 3084 3261 2657 
Q 3669 2231 3669 1497 
Q 3669 778 3244 343 
Q 2819 -91 2113 -91 
Q 1303 -91 875 529 
Q 447 1150 447 2328 
Q 447 3434 972 4092 
Q 1497 4750 2381 4750 
Q 2619 4750 2861 4703 
Q 3103 4656 3366 4563 
z
" transform="scale(0.015625)"/>
       </defs>
       <use xlink:href="#DejaVuSans-2212"/>
       <use xlink:href="#DejaVuSans-35" x="83.789062"/>
       <use xlink:href="#DejaVuSans-34" x="147.412109"/>
       <use xlink:href="#DejaVuSans-36" x="211.035156"/>
      </g>
     </g>
    </g>
    <g id="xtick_3">
     <g id="line2d_3">
      <g>
       <use xlink:href="#mfac0355877" x="416.748134" y="546.6024" style="stroke: #000000; stroke-width: 0.8"/>
      </g>
     </g>
     <g id="text_3">
      <!-- −544 -->
      <g transform="translate(375.547352 576.397713)scale(0.3 -0.3)">
       <use xlink:href="#DejaVuSans-2212"/>
       <use xlink:href="#DejaVuSans-35" x="83.789062"/>
       <use xlink:href="#DejaVuSans-34" x="147.412109"/>
       <use xlink:href="#DejaVuSans-34" x="211.035156"/>
      </g>
     </g>
    </g>
    <g id="xtick_4">
     <g id="line2d_4">
      <g>
       <use xlink:href="#mfac0355877" x="543.055269" y="546.6024" style="stroke: #000000; stroke-width: 0.8"/>
      </g>
     </g>
     <g id="text_4">
      <!-- −542 -->
      <g transform="translate(501.854488 576.397713)scale(0.3 -0.3)">
       <defs>
        <path id="DejaVuSans-32" d="M 1228 531 
L 3431 531 
L 3431 0 
L 469 0 
L 469 531 
Q 828 903 1448 1529 
Q 2069 2156 2228 2338 
Q 2531 2678 2651 2914 
Q 2772 3150 2772 3378 
Q 2772 3750 2511 3984 
Q 2250 4219 1831 4219 
Q 1534 4219 1204 4116 
Q 875 4013 500 3803 
L 500 4441 
Q 881 4594 1212 4672 
Q 1544 4750 1819 4750 
Q 2544 4750 2975 4387 
Q 3406 4025 3406 3419 
Q 3406 3131 3298 2873 
Q 3191 2616 2906 2266 
Q 2828 2175 2409 1742 
Q 1991 1309 1228 531 
z
" transform="scale(0.015625)"/>
       </defs>
       <use xlink:href="#DejaVuSans-2212"/>
       <use xlink:href="#DejaVuSans-35" x="83.789062"/>
       <use xlink:href="#DejaVuSans-34" x="147.412109"/>
       <use xlink:href="#DejaVuSans-32" x="211.035156"/>
      </g>
     </g>
    </g>
    <g id="xtick_5">
     <g id="line2d_5">
      <g>
       <use xlink:href="#mfac0355877" x="669.362405" y="546.6024" style="stroke: #000000; stroke-width: 0.8"/>
      </g>
     </g>
     <g id="text_5">
      <!-- −540 -->
      <g transform="translate(628.161623 576.397713)scale(0.3 -0.3)">
       <defs>
        <path id="DejaVuSans-30" d="M 2034 4250 
Q 1547 4250 1301 3770 
Q 1056 3291 1056 2328 
Q 1056 1369 1301 889 
Q 1547 409 2034 409 
Q 2525 409 2770 889 
Q 3016 1369 3016 2328 
Q 3016 3291 2770 3770 
Q 2525 4250 2034 4250 
z
M 2034 4750 
Q 2819 4750 3233 4129 
Q 3647 3509 3647 2328 
Q 3647 1150 3233 529 
Q 2819 -91 2034 -91 
Q 1250 -91 836 529 
Q 422 1150 422 2328 
Q 422 3509 836 4129 
Q 1250 4750 2034 4750 
z
" transform="scale(0.015625)"/>
       </defs>
       <use xlink:href="#DejaVuSans-2212"/>
       <use xlink:href="#DejaVuSans-35" x="83.789062"/>
       <use xlink:href="#DejaVuSans-34" x="147.412109"/>
       <use xlink:href="#DejaVuSans-30" x="211.035156"/>
      </g>
     </g>
    </g>
    <g id="text_6">
     <!-- $\omega$ (eV) -->
     <g transform="translate(398.259 609.432087)scale(0.3 -0.3)">
      <defs>
       <path id="DejaVuSans-Oblique-3c9" d="M 1369 -91 
Q 72 -91 434 1766 
Q 575 2500 1256 3500 
L 1875 3500 
Q 1231 2500 1088 1750 
Q 819 397 1519 397 
Q 2166 397 2478 2078 
L 3009 2078 
Q 2669 388 3316 397 
Q 4013 403 4275 1750 
Q 4419 2500 4169 3500 
L 4788 3500 
Q 5075 2500 4934 1766 
Q 4578 -94 3278 -91 
Q 2428 -88 2503 844 
Q 2194 -91 1369 -91 
z
" transform="scale(0.015625)"/>
       <path id="DejaVuSans-20" transform="scale(0.015625)"/>
       <path id="DejaVuSans-28" d="M 1984 4856 
Q 1566 4138 1362 3434 
Q 1159 2731 1159 2009 
Q 1159 1288 1364 580 
Q 1569 -128 1984 -844 
L 1484 -844 
Q 1016 -109 783 600 
Q 550 1309 550 2009 
Q 550 2706 781 3412 
Q 1013 4119 1484 4856 
L 1984 4856 
z
" transform="scale(0.015625)"/>
       <path id="DejaVuSans-65" d="M 3597 1894 
L 3597 1613 
L 953 1613 
Q 991 1019 1311 708 
Q 1631 397 2203 397 
Q 2534 397 2845 478 
Q 3156 559 3463 722 
L 3463 178 
Q 3153 47 2828 -22 
Q 2503 -91 2169 -91 
Q 1331 -91 842 396 
Q 353 884 353 1716 
Q 353 2575 817 3079 
Q 1281 3584 2069 3584 
Q 2775 3584 3186 3129 
Q 3597 2675 3597 1894 
z
M 3022 2063 
Q 3016 2534 2758 2815 
Q 2500 3097 2075 3097 
Q 1594 3097 1305 2825 
Q 1016 2553 972 2059 
L 3022 2063 
z
" transform="scale(0.015625)"/>
       <path id="DejaVuSans-56" d="M 1831 0 
L 50 4666 
L 709 4666 
L 2188 738 
L 3669 4666 
L 4325 4666 
L 2547 0 
L 1831 0 
z
" transform="scale(0.015625)"/>
       <path id="DejaVuSans-29" d="M 513 4856 
L 1013 4856 
Q 1481 4119 1714 3412 
Q 1947 2706 1947 2009 
Q 1947 1309 1714 600 
Q 1481 -109 1013 -844 
L 513 -844 
Q 928 -128 1133 580 
Q 1338 1288 1338 2009 
Q 1338 2731 1133 3434 
Q 928 4138 513 4856 
z
" transform="scale(0.015625)"/>
      </defs>
      <use xlink:href="#DejaVuSans-Oblique-3c9" transform="translate(0 0.125)"/>
      <use xlink:href="#DejaVuSans-20" transform="translate(83.740234 0.125)"/>
      <use xlink:href="#DejaVuSans-28" transform="translate(115.527344 0.125)"/>
      <use xlink:href="#DejaVuSans-65" transform="translate(154.541016 0.125)"/>
      <use xlink:href="#DejaVuSans-56" transform="translate(216.064453 0.125)"/>
      <use xlink:href="#DejaVuSans-29" transform="translate(284.472656 0.125)"/>
     </g>
    </g>
   </g>
   <g id="matplotlib.axis_2">
    <g id="ytick_1">
     <g id="line2d_6">
      <defs>
       <path id="m0dfa7bb231" d="M 0 0 
L -3.5 0 
" style="stroke: #000000; stroke-width: 0.8"/>
      </defs>
      <g>
       <use xlink:href="#m0dfa7bb231" x="108.99" y="517.972062" style="stroke: #000000; stroke-width: 0.8"/>
      </g>
     </g>
     <g id="text_7">
      <!-- 0 -->
      <g transform="translate(82.9025 529.369718)scale(0.3 -0.3)">
       <use xlink:href="#DejaVuSans-30"/>
      </g>
     </g>
    </g>
    <g id="ytick_2">
     <g id="line2d_7">
      <g>
       <use xlink:href="#m0dfa7bb231" x="108.99" y="390.193238" style="stroke: #000000; stroke-width: 0.8"/>
      </g>
     </g>
     <g id="text_8">
      <!-- 200 -->
      <g transform="translate(44.7275 401.590894)scale(0.3 -0.3)">
       <use xlink:href="#DejaVuSans-32"/>
       <use xlink:href="#DejaVuSans-30" x="63.623047"/>
       <use xlink:href="#DejaVuSans-30" x="127.246094"/>
      </g>
     </g>
    </g>
    <g id="ytick_3">
     <g id="line2d_8">
      <g>
       <use xlink:href="#m0dfa7bb231" x="108.99" y="262.414413" style="stroke: #000000; stroke-width: 0.8"/>
      </g>
     </g>
     <g id="text_9">
      <!-- 400 -->
      <g transform="translate(44.7275 273.81207)scale(0.3 -0.3)">
       <use xlink:href="#DejaVuSans-34"/>
       <use xlink:href="#DejaVuSans-30" x="63.623047"/>
       <use xlink:href="#DejaVuSans-30" x="127.246094"/>
      </g>
     </g>
    </g>
    <g id="ytick_4">
     <g id="line2d_9">
      <g>
       <use xlink:href="#m0dfa7bb231" x="108.99" y="134.635589" style="stroke: #000000; stroke-width: 0.8"/>
      </g>
     </g>
     <g id="text_10">
      <!-- 600 -->
      <g transform="translate(44.7275 146.033245)scale(0.3 -0.3)">
       <use xlink:href="#DejaVuSans-36"/>
       <use xlink:href="#DejaVuSans-30" x="63.623047"/>
       <use xlink:href="#DejaVuSans-30" x="127.246094"/>
      </g>
     </g>
    </g>
    <g id="text_11">
     <!-- $A_{1s}$ (eV) -->
     <g transform="translate(34.488437 368.9508)rotate(-90)scale(0.3 -0.3)">
      <defs>
       <path id="DejaVuSans-Oblique-41" d="M 2356 4666 
L 3072 4666 
L 3938 0 
L 3278 0 
L 3084 1197 
L 984 1197 
L 325 0 
L -341 0 
L 2356 4666 
z
M 2584 4044 
L 1275 1722 
L 2988 1722 
L 2584 4044 
z
" transform="scale(0.015625)"/>
       <path id="DejaVuSans-31" d="M 794 531 
L 1825 531 
L 1825 4091 
L 703 3866 
L 703 4441 
L 1819 4666 
L 2450 4666 
L 2450 531 
L 3481 531 
L 3481 0 
L 794 0 
L 794 531 
z
" transform="scale(0.015625)"/>
       <path id="DejaVuSans-Oblique-73" d="M 3200 3397 
L 3091 2853 
Q 2863 2978 2609 3040 
Q 2356 3103 2088 3103 
Q 1634 3103 1373 2948 
Q 1113 2794 1113 2528 
Q 1113 2219 1719 2053 
Q 1766 2041 1788 2034 
L 1972 1978 
Q 2547 1819 2739 1644 
Q 2931 1469 2931 1166 
Q 2931 609 2489 259 
Q 2047 -91 1331 -91 
Q 1053 -91 747 -37 
Q 441 16 72 128 
L 184 722 
Q 500 559 806 475 
Q 1113 391 1394 391 
Q 1816 391 2080 572 
Q 2344 753 2344 1031 
Q 2344 1331 1650 1516 
L 1591 1531 
L 1394 1581 
Q 956 1697 753 1886 
Q 550 2075 550 2369 
Q 550 2928 970 3256 
Q 1391 3584 2113 3584 
Q 2397 3584 2667 3537 
Q 2938 3491 3200 3397 
z
" transform="scale(0.015625)"/>
      </defs>
      <use xlink:href="#DejaVuSans-Oblique-41" transform="translate(0 0.125)"/>
      <use xlink:href="#DejaVuSans-31" transform="translate(68.408203 -16.28125)scale(0.7)"/>
      <use xlink:href="#DejaVuSans-Oblique-73" transform="translate(112.944336 -16.28125)scale(0.7)"/>
      <use xlink:href="#DejaVuSans-20" transform="translate(152.148438 0.125)"/>
      <use xlink:href="#DejaVuSans-28" transform="translate(183.935547 0.125)"/>
      <use xlink:href="#DejaVuSans-65" transform="translate(222.949219 0.125)"/>
      <use xlink:href="#DejaVuSans-56" transform="translate(284.472656 0.125)"/>
      <use xlink:href="#DejaVuSans-29" transform="translate(352.880859 0.125)"/>
     </g>
    </g>
   </g>
   <g id="line2d_10">
    <path d="M 108.937644 517.43902 
L 114.810926 517.104189 
L 118.536987 516.681524 
L 121.063129 516.185778 
L 122.957736 515.599827 
L 124.473422 514.901076 
L 125.67334 514.113607 
L 126.74695 513.139038 
L 127.694254 511.966025 
L 128.578404 510.489194 
L 129.3994 508.656105 
L 130.220397 506.223954 
L 131.041393 503.041562 
L 131.988696 498.407495 
L 133.441229 491.175802 
L 133.883303 489.915474 
L 134.199071 489.532803 
L 134.451686 489.570049 
L 134.7043 489.910702 
L 135.083221 490.938232 
L 135.651603 493.355005 
L 138.2409 505.652388 
L 139.12505 508.345914 
L 140.0092 510.339193 
L 140.89335 511.817699 
L 141.840653 512.995478 
L 142.914264 513.976951 
L 144.114181 514.772362 
L 145.566714 515.45553 
L 147.335013 516.026236 
L 149.608542 516.512265 
L 152.639913 516.918019 
L 156.871202 517.243439 
L 163.37602 517.500527 
L 174.491048 517.690235 
L 197.036871 517.814677 
L 259.116828 517.874094 
L 461.587167 517.803557 
L 566.801011 517.591091 
L 613.092576 517.295881 
L 639.36446 516.922089 
L 656.415923 516.470086 
L 668.415101 515.940052 
L 677.319754 515.333194 
L 684.203493 514.649227 
L 689.697853 513.886699 
L 694.181757 513.04641 
L 697.907817 512.129405 
L 701.065496 511.131783 
L 703.844253 510.022428 
L 706.244088 508.828242 
L 708.391309 507.512593 
L 710.285916 506.097534 
L 712.054216 504.497511 
L 713.633056 502.775777 
L 715.148741 500.789181 
L 716.53812 498.601437 
L 717.864345 496.095023 
L 719.127416 493.222682 
L 720.327334 489.93167 
L 721.464098 486.164062 
L 722.537709 481.857626 
L 723.611319 476.607819 
L 724.621776 470.54026 
L 725.632233 463.025459 
L 726.579537 454.224303 
L 727.463687 443.944752 
L 728.347837 430.953354 
L 729.168833 415.556373 
L 729.98983 395.670454 
L 730.747672 371.679223 
L 731.442362 342.89476 
L 732.137051 304.701598 
L 732.768587 258.014486 
L 733.400122 194.185982 
L 733.968504 114.377134 
L 734.545921 -1 
M 742.929229 -1 
L 743.504693 114.907319 
L 744.136229 202.678032 
L 744.830918 269.925259 
L 745.588761 321.485725 
L 746.346604 358.551226 
L 747.1676 388.041509 
L 747.988596 410.073525 
L 748.872746 428.093641 
L 749.82005 442.830825 
L 750.767353 454.232179 
L 751.77781 463.763343 
L 752.788268 471.314294 
L 753.861878 477.737337 
L 754.998642 483.199048 
L 756.135407 487.624617 
L 757.335324 491.442726 
L 758.598396 494.736562 
L 759.924621 497.579547 
L 761.313999 500.035731 
L 762.766531 502.160504 
L 764.34537 504.071146 
L 765.987363 505.715334 
L 767.818817 507.229566 
L 769.776577 508.559887 
L 771.986952 509.787337 
L 774.449941 510.89438 
L 777.228698 511.895896 
L 780.44953 512.81426 
L 784.175591 513.641256 
L 784.743973 513.749944 
L 784.743973 513.749944 
" clip-path="url(#pa465684e8b)" style="fill: none; stroke: #1f77b4; stroke-width: 3; stroke-linecap: square"/>
   </g>
   <g id="line2d_11">
    <path d="M 108.937644 517.583607 
L 115.379308 517.274987 
L 119.231676 516.885491 
L 121.820972 516.415752 
L 123.715579 515.85809 
L 125.168111 515.21031 
L 126.368029 514.434892 
L 127.378486 513.515726 
L 128.262636 512.407895 
L 129.083632 511.003342 
L 129.841475 509.240818 
L 130.536164 507.069825 
L 131.230854 504.175284 
L 131.988696 499.963325 
L 132.872846 493.61036 
L 134.009611 485.453603 
L 134.388532 483.943662 
L 134.641146 483.547745 
L 134.830607 483.602212 
L 135.020068 483.955712 
L 135.335836 485.153032 
L 135.841064 488.26381 
L 137.988285 503.116736 
L 138.809282 506.699084 
L 139.630278 509.259003 
L 140.451275 511.098035 
L 141.335424 512.528449 
L 142.282728 513.634745 
L 143.356339 514.535462 
L 144.556256 515.252161 
L 146.008788 515.859086 
L 147.840242 516.375049 
L 150.240078 516.808468 
L 153.587217 517.169399 
L 158.513195 517.456784 
L 166.470544 517.675061 
L 181.311633 517.828093 
L 216.425017 517.918947 
L 318.986411 517.915635 
L 351.826266 517.964542 
L 371.340718 517.996191 
L 677.509215 517.825406 
L 697.149974 517.596571 
L 704.349481 517.323401 
L 715.969738 516.508864 
L 719.001109 515.987141 
L 721.337791 515.366095 
L 723.169244 514.654008 
L 724.68493 513.823608 
L 725.948001 512.873787 
L 727.021612 511.790349 
L 727.968915 510.525663 
L 728.853065 508.966734 
L 729.674062 507.04403 
L 730.431905 504.67431 
L 731.126594 501.765288 
L 731.821283 497.799977 
L 732.452819 492.799332 
L 733.021201 486.542121 
L 733.589583 477.650884 
L 734.094812 466.18761 
L 734.60004 449.086993 
L 735.042115 426.141568 
L 735.48419 389.592094 
L 735.863111 337.749138 
L 736.178879 266.302041 
L 736.494647 142.426262 
L 736.706588 -1 
M 739.146781 -1 
L 739.462865 189.535642 
L 739.841786 305.992586 
L 740.283861 377.616257 
L 740.78909 422.494474 
L 741.294318 448.791898 
L 741.8627 467.164356 
L 742.431082 479.056383 
L 743.062618 487.934299 
L 743.757307 494.576854 
L 744.451997 499.219241 
L 745.209839 502.853012 
L 746.030836 505.703383 
L 746.914986 507.941781 
L 747.862289 509.710863 
L 748.809593 511.037883 
L 749.883203 512.174595 
L 751.083121 513.127122 
L 752.788268 514.103407 
L 754.493414 514.834663 
L 756.956403 515.619176 
L 759.356239 516.121354 
L 762.829685 516.5903 
L 767.503049 516.976308 
L 774.260481 517.295531 
L 784.743973 517.548908 
L 784.743973 517.548908 
" clip-path="url(#pa465684e8b)" style="fill: none; stroke: #ff7f0e; stroke-width: 3; stroke-linecap: square"/>
   </g>
   <g id="patch_3">
    <path d="M 108.99 546.6024 
L 108.99 73.6992 
" style="fill: none; stroke: #000000; stroke-width: 0.8; stroke-linejoin: miter; stroke-linecap: square"/>
   </g>
   <g id="patch_4">
    <path d="M 784.728 546.6024 
L 784.728 73.6992 
" style="fill: none; stroke: #000000; stroke-width: 0.8; stroke-linejoin: miter; stroke-linecap: square"/>
   </g>
   <g id="patch_5">
    <path d="M 108.99 546.6024 
L 784.728 546.6024 
" style="fill: none; stroke: #000000; stroke-width: 0.8; stroke-linejoin: miter; stroke-linecap: square"/>
   </g>
   <g id="patch_6">
    <path d="M 108.99 73.6992 
L 784.728 73.6992 
" style="fill: none; stroke: #000000; stroke-width: 0.8; stroke-linejoin: miter; stroke-linecap: square"/>
   </g>
   <g id="legend_1">
    <g id="patch_7">
     <path d="M 129.99 185.76795 
L 352.29 185.76795 
Q 358.29 185.76795 358.29 179.76795 
L 358.29 94.6992 
Q 358.29 88.6992 352.29 88.6992 
L 129.99 88.6992 
Q 123.99 88.6992 123.99 94.6992 
L 123.99 179.76795 
Q 123.99 185.76795 129.99 185.76795 
z
" style="fill: #ffffff; opacity: 0.8; stroke: #cccccc; stroke-linejoin: miter"/>
    </g>
    <g id="line2d_12">
     <path d="M 135.99 112.994513 
L 165.99 112.994513 
L 195.99 112.994513 
" style="fill: none; stroke: #1f77b4; stroke-width: 3; stroke-linecap: square"/>
    </g>
    <g id="text_12">
     <!-- $CD$ -->
     <g transform="translate(219.99 123.494513)scale(0.3 -0.3)">
      <defs>
       <path id="DejaVuSans-Oblique-43" d="M 4447 4306 
L 4319 3641 
Q 4019 3944 3683 4091 
Q 3347 4238 2956 4238 
Q 2422 4238 2017 3981 
Q 1613 3725 1319 3200 
Q 1131 2863 1032 2486 
Q 934 2109 934 1728 
Q 934 1091 1264 756 
Q 1594 422 2222 422 
Q 2656 422 3056 561 
Q 3456 700 3834 978 
L 3688 231 
Q 3316 72 2936 -9 
Q 2556 -91 2175 -91 
Q 1278 -91 773 396 
Q 269 884 269 1753 
Q 269 2309 461 2846 
Q 653 3384 1013 3828 
Q 1394 4300 1883 4525 
Q 2372 4750 3022 4750 
Q 3422 4750 3780 4639 
Q 4138 4528 4447 4306 
z
" transform="scale(0.015625)"/>
       <path id="DejaVuSans-Oblique-44" d="M 1081 4666 
L 2438 4666 
Q 3519 4666 4070 4208 
Q 4622 3750 4622 2847 
Q 4622 2250 4412 1698 
Q 4203 1147 3834 769 
Q 3463 381 2891 190 
Q 2319 0 1538 0 
L 172 0 
L 1081 4666 
z
M 1613 4147 
L 909 519 
L 1734 519 
Q 2794 519 3375 1128 
Q 3956 1738 3956 2847 
Q 3956 3519 3581 3833 
Q 3206 4147 2406 4147 
L 1613 4147 
z
" transform="scale(0.015625)"/>
      </defs>
      <use xlink:href="#DejaVuSans-Oblique-43" transform="translate(0 0.78125)"/>
      <use xlink:href="#DejaVuSans-Oblique-44" transform="translate(69.824219 0.78125)"/>
     </g>
    </g>
    <g id="line2d_13">
     <path d="M 135.99 157.028888 
L 165.99 157.028888 
L 195.99 157.028888 
" style="fill: none; stroke: #ff7f0e; stroke-width: 3; stroke-linecap: square"/>
    </g>
    <g id="text_13">
     <!-- $CD$-$WAC$ -->
     <g transform="translate(219.99 167.528888)scale(0.3 -0.3)">
      <defs>
       <path id="DejaVuSans-2d" d="M 313 2009 
L 1997 2009 
L 1997 1497 
L 313 1497 
L 313 2009 
z
" transform="scale(0.015625)"/>
       <path id="DejaVuSans-Oblique-57" d="M 616 4666 
L 1228 4666 
L 1453 697 
L 3213 4666 
L 3916 4666 
L 4147 697 
L 5888 4666 
L 6528 4666 
L 4453 0 
L 3659 0 
L 3444 3891 
L 1697 0 
L 903 0 
L 616 4666 
z
" transform="scale(0.015625)"/>
      </defs>
      <use xlink:href="#DejaVuSans-Oblique-43" transform="translate(0 0.78125)"/>
      <use xlink:href="#DejaVuSans-Oblique-44" transform="translate(69.824219 0.78125)"/>
      <use xlink:href="#DejaVuSans-2d" transform="translate(146.826172 0.78125)"/>
      <use xlink:href="#DejaVuSans-Oblique-57" transform="translate(182.910156 0.78125)"/>
      <use xlink:href="#DejaVuSans-Oblique-41" transform="translate(281.787109 0.78125)"/>
      <use xlink:href="#DejaVuSans-Oblique-43" transform="translate(350.195312 0.78125)"/>
     </g>
    </g>
   </g>
  </g>
 </g>
 <defs>
  <clipPath id="pa465684e8b">
   <rect x="108.99" y="73.6992" width="675.738" height="472.9032"/>
  </clipPath>
 </defs>
</svg>
