<?xml version="1.0" encoding="utf-8" standalone="no"?>
<!DOCTYPE svg PUBLIC "-//W3C//DTD SVG 1.1//EN"
  "http://www.w3.org/Graphics/SVG/1.1/DTD/svg11.dtd">
<svg xmlns:xlink="http://www.w3.org/1999/xlink" width="1002.24pt" height="642.24pt" viewBox="0 0 1002.24 642.24" xmlns="http://www.w3.org/2000/svg" version="1.1">
 <metadata>
  <rdf:RDF xmlns:dc="http://purl.org/dc/elements/1.1/" xmlns:cc="http://creativecommons.org/ns#" xmlns:rdf="http://www.w3.org/1999/02/22-rdf-syntax-ns#">
   <cc:Work>
    <dc:type rdf:resource="http://purl.org/dc/dcmitype/StillImage"/>
    <dc:date>1980-01-01T00:00:00+00:00</dc:date>
    <dc:format>image/svg+xml</dc:format>
    <dc:creator>
     <cc:Agent>
      <dc:title>Matplotlib v3.5.2, https://matplotlib.org/</dc:title>
     </cc:Agent>
    </dc:creator>
   </cc:Work>
  </rdf:RDF>
 </metadata>
 <defs>
  <style type="text/css">*{stroke-linejoin: round; stroke-linecap: butt}</style>
 </defs>
 <g id="figure_1">
  <g id="patch_1">
   <path d="M 0 642.24 
L 1002.24 642.24 
L 1002.24 0 
L 0 0 
z
" style="fill: #ffffff"/>
  </g>
  <g id="axes_1">
   <g id="patch_2">
    <path d="M 125.28 571.5936 
L 902.016 571.5936 
L 902.016 77.0688 
L 125.28 77.0688 
z
" style="fill: #ffffff"/>
   </g>
   <g id="matplotlib.axis_1">
    <g id="xtick_1">
     <g id="line2d_1">
      <defs>
       <path id="mee02c00253" d="M 0 0 
L 0 3.5 
" style="stroke: #000000; stroke-width: 0.8"/>
      </defs>
      <g>
       <use xlink:href="#mee02c00253" x="160.586182" y="571.5936" style="stroke: #000000; stroke-width: 0.8"/>
      </g>
     </g>
     <g id="text_1">
      <!-- −550 -->
      <g transform="translate(119.385401 601.388913)scale(0.3 -0.3)">
       <defs>
        <path id="DejaVuSans-2212" d="M 678 2272 
L 4684 2272 
L 4684 1741 
L 678 1741 
L 678 2272 
z
" transform="scale(0.015625)"/>
        <path id="DejaVuSans-35" d="M 691 4666 
L 3169 4666 
L 3169 4134 
L 1269 4134 
L 1269 2991 
Q 1406 3038 1543 3061 
Q 1681 3084 1819 3084 
Q 2600 3084 3056 2656 
Q 3513 2228 3513 1497 
Q 3513 744 3044 326 
Q 2575 -91 1722 -91 
Q 1428 -91 1123 -41 
Q 819 9 494 109 
L 494 744 
Q 775 591 1075 516 
Q 1375 441 1709 441 
Q 2250 441 2565 725 
Q 2881 1009 2881 1497 
Q 2881 1984 2565 2268 
Q 2250 2553 1709 2553 
Q 1456 2553 1204 2497 
Q 953 2441 691 2322 
L 691 4666 
z
" transform="scale(0.015625)"/>
        <path id="DejaVuSans-30" d="M 2034 4250 
Q 1547 4250 1301 3770 
Q 1056 3291 1056 2328 
Q 1056 1369 1301 889 
Q 1547 409 2034 409 
Q 2525 409 2770 889 
Q 3016 1369 3016 2328 
Q 3016 3291 2770 3770 
Q 2525 4250 2034 4250 
z
M 2034 4750 
Q 2819 4750 3233 4129 
Q 3647 3509 3647 2328 
Q 3647 1150 3233 529 
Q 2819 -91 2034 -91 
Q 1250 -91 836 529 
Q 422 1150 422 2328 
Q 422 3509 836 4129 
Q 1250 4750 2034 4750 
z
" transform="scale(0.015625)"/>
       </defs>
       <use xlink:href="#DejaVuSans-2212"/>
       <use xlink:href="#DejaVuSans-35" x="83.789062"/>
       <use xlink:href="#DejaVuSans-35" x="147.412109"/>
       <use xlink:href="#DejaVuSans-30" x="211.035156"/>
      </g>
     </g>
    </g>
    <g id="xtick_2">
     <g id="line2d_2">
      <g>
       <use xlink:href="#mee02c00253" x="278.273455" y="571.5936" style="stroke: #000000; stroke-width: 0.8"/>
      </g>
     </g>
     <g id="text_2">
      <!-- −545 -->
      <g transform="translate(237.072673 601.388913)scale(0.3 -0.3)">
       <defs>
        <path id="DejaVuSans-34" d="M 2419 4116 
L 825 1625 
L 2419 1625 
L 2419 4116 
z
M 2253 4666 
L 3047 4666 
L 3047 1625 
L 3713 1625 
L 3713 1100 
L 3047 1100 
L 3047 0 
L 2419 0 
L 2419 1100 
L 313 1100 
L 313 1709 
L 2253 4666 
z
" transform="scale(0.015625)"/>
       </defs>
       <use xlink:href="#DejaVuSans-2212"/>
       <use xlink:href="#DejaVuSans-35" x="83.789062"/>
       <use xlink:href="#DejaVuSans-34" x="147.412109"/>
       <use xlink:href="#DejaVuSans-35" x="211.035156"/>
      </g>
     </g>
    </g>
    <g id="xtick_3">
     <g id="line2d_3">
      <g>
       <use xlink:href="#mee02c00253" x="395.960727" y="571.5936" style="stroke: #000000; stroke-width: 0.8"/>
      </g>
     </g>
     <g id="text_3">
      <!-- −540 -->
      <g transform="translate(354.759946 601.388913)scale(0.3 -0.3)">
       <use xlink:href="#DejaVuSans-2212"/>
       <use xlink:href="#DejaVuSans-35" x="83.789062"/>
       <use xlink:href="#DejaVuSans-34" x="147.412109"/>
       <use xlink:href="#DejaVuSans-30" x="211.035156"/>
      </g>
     </g>
    </g>
    <g id="xtick_4">
     <g id="line2d_4">
      <g>
       <use xlink:href="#mee02c00253" x="513.648" y="571.5936" style="stroke: #000000; stroke-width: 0.8"/>
      </g>
     </g>
     <g id="text_4">
      <!-- −535 -->
      <g transform="translate(472.447219 601.388913)scale(0.3 -0.3)">
       <defs>
        <path id="DejaVuSans-33" d="M 2597 2516 
Q 3050 2419 3304 2112 
Q 3559 1806 3559 1356 
Q 3559 666 3084 287 
Q 2609 -91 1734 -91 
Q 1441 -91 1130 -33 
Q 819 25 488 141 
L 488 750 
Q 750 597 1062 519 
Q 1375 441 1716 441 
Q 2309 441 2620 675 
Q 2931 909 2931 1356 
Q 2931 1769 2642 2001 
Q 2353 2234 1838 2234 
L 1294 2234 
L 1294 2753 
L 1863 2753 
Q 2328 2753 2575 2939 
Q 2822 3125 2822 3475 
Q 2822 3834 2567 4026 
Q 2313 4219 1838 4219 
Q 1578 4219 1281 4162 
Q 984 4106 628 3988 
L 628 4550 
Q 988 4650 1302 4700 
Q 1616 4750 1894 4750 
Q 2613 4750 3031 4423 
Q 3450 4097 3450 3541 
Q 3450 3153 3228 2886 
Q 3006 2619 2597 2516 
z
" transform="scale(0.015625)"/>
       </defs>
       <use xlink:href="#DejaVuSans-2212"/>
       <use xlink:href="#DejaVuSans-35" x="83.789062"/>
       <use xlink:href="#DejaVuSans-33" x="147.412109"/>
       <use xlink:href="#DejaVuSans-35" x="211.035156"/>
      </g>
     </g>
    </g>
    <g id="xtick_5">
     <g id="line2d_5">
      <g>
       <use xlink:href="#mee02c00253" x="631.335273" y="571.5936" style="stroke: #000000; stroke-width: 0.8"/>
      </g>
     </g>
     <g id="text_5">
      <!-- −530 -->
      <g transform="translate(590.134491 601.388913)scale(0.3 -0.3)">
       <use xlink:href="#DejaVuSans-2212"/>
       <use xlink:href="#DejaVuSans-35" x="83.789062"/>
       <use xlink:href="#DejaVuSans-33" x="147.412109"/>
       <use xlink:href="#DejaVuSans-30" x="211.035156"/>
      </g>
     </g>
    </g>
    <g id="xtick_6">
     <g id="line2d_6">
      <g>
       <use xlink:href="#mee02c00253" x="749.022545" y="571.5936" style="stroke: #000000; stroke-width: 0.8"/>
      </g>
     </g>
     <g id="text_6">
      <!-- −525 -->
      <g transform="translate(707.821764 601.388913)scale(0.3 -0.3)">
       <defs>
        <path id="DejaVuSans-32" d="M 1228 531 
L 3431 531 
L 3431 0 
L 469 0 
L 469 531 
Q 828 903 1448 1529 
Q 2069 2156 2228 2338 
Q 2531 2678 2651 2914 
Q 2772 3150 2772 3378 
Q 2772 3750 2511 3984 
Q 2250 4219 1831 4219 
Q 1534 4219 1204 4116 
Q 875 4013 500 3803 
L 500 4441 
Q 881 4594 1212 4672 
Q 1544 4750 1819 4750 
Q 2544 4750 2975 4387 
Q 3406 4025 3406 3419 
Q 3406 3131 3298 2873 
Q 3191 2616 2906 2266 
Q 2828 2175 2409 1742 
Q 1991 1309 1228 531 
z
" transform="scale(0.015625)"/>
       </defs>
       <use xlink:href="#DejaVuSans-2212"/>
       <use xlink:href="#DejaVuSans-35" x="83.789062"/>
       <use xlink:href="#DejaVuSans-32" x="147.412109"/>
       <use xlink:href="#DejaVuSans-35" x="211.035156"/>
      </g>
     </g>
    </g>
    <g id="xtick_7">
     <g id="line2d_7">
      <g>
       <use xlink:href="#mee02c00253" x="866.709818" y="571.5936" style="stroke: #000000; stroke-width: 0.8"/>
      </g>
     </g>
     <g id="text_7">
      <!-- −520 -->
      <g transform="translate(825.509037 601.388913)scale(0.3 -0.3)">
       <use xlink:href="#DejaVuSans-2212"/>
       <use xlink:href="#DejaVuSans-35" x="83.789062"/>
       <use xlink:href="#DejaVuSans-32" x="147.412109"/>
       <use xlink:href="#DejaVuSans-30" x="211.035156"/>
      </g>
     </g>
    </g>
    <g id="text_8">
     <!-- $\omega$ (eV) -->
     <g transform="translate(465.048 634.423288)scale(0.3 -0.3)">
      <defs>
       <path id="DejaVuSans-Oblique-3c9" d="M 1369 -91 
Q 72 -91 434 1766 
Q 575 2500 1256 3500 
L 1875 3500 
Q 1231 2500 1088 1750 
Q 819 397 1519 397 
Q 2166 397 2478 2078 
L 3009 2078 
Q 2669 388 3316 397 
Q 4013 403 4275 1750 
Q 4419 2500 4169 3500 
L 4788 3500 
Q 5075 2500 4934 1766 
Q 4578 -94 3278 -91 
Q 2428 -88 2503 844 
Q 2194 -91 1369 -91 
z
" transform="scale(0.015625)"/>
       <path id="DejaVuSans-20" transform="scale(0.015625)"/>
       <path id="DejaVuSans-28" d="M 1984 4856 
Q 1566 4138 1362 3434 
Q 1159 2731 1159 2009 
Q 1159 1288 1364 580 
Q 1569 -128 1984 -844 
L 1484 -844 
Q 1016 -109 783 600 
Q 550 1309 550 2009 
Q 550 2706 781 3412 
Q 1013 4119 1484 4856 
L 1984 4856 
z
" transform="scale(0.015625)"/>
       <path id="DejaVuSans-65" d="M 3597 1894 
L 3597 1613 
L 953 1613 
Q 991 1019 1311 708 
Q 1631 397 2203 397 
Q 2534 397 2845 478 
Q 3156 559 3463 722 
L 3463 178 
Q 3153 47 2828 -22 
Q 2503 -91 2169 -91 
Q 1331 -91 842 396 
Q 353 884 353 1716 
Q 353 2575 817 3079 
Q 1281 3584 2069 3584 
Q 2775 3584 3186 3129 
Q 3597 2675 3597 1894 
z
M 3022 2063 
Q 3016 2534 2758 2815 
Q 2500 3097 2075 3097 
Q 1594 3097 1305 2825 
Q 1016 2553 972 2059 
L 3022 2063 
z
" transform="scale(0.015625)"/>
       <path id="DejaVuSans-56" d="M 1831 0 
L 50 4666 
L 709 4666 
L 2188 738 
L 3669 4666 
L 4325 4666 
L 2547 0 
L 1831 0 
z
" transform="scale(0.015625)"/>
       <path id="DejaVuSans-29" d="M 513 4856 
L 1013 4856 
Q 1481 4119 1714 3412 
Q 1947 2706 1947 2009 
Q 1947 1309 1714 600 
Q 1481 -109 1013 -844 
L 513 -844 
Q 928 -128 1133 580 
Q 1338 1288 1338 2009 
Q 1338 2731 1133 3434 
Q 928 4138 513 4856 
z
" transform="scale(0.015625)"/>
      </defs>
      <use xlink:href="#DejaVuSans-Oblique-3c9" transform="translate(0 0.125)"/>
      <use xlink:href="#DejaVuSans-20" transform="translate(83.740234 0.125)"/>
      <use xlink:href="#DejaVuSans-28" transform="translate(115.527344 0.125)"/>
      <use xlink:href="#DejaVuSans-65" transform="translate(154.541016 0.125)"/>
      <use xlink:href="#DejaVuSans-56" transform="translate(216.064453 0.125)"/>
      <use xlink:href="#DejaVuSans-29" transform="translate(284.472656 0.125)"/>
     </g>
    </g>
   </g>
   <g id="matplotlib.axis_2">
    <g id="ytick_1">
     <g id="line2d_8">
      <defs>
       <path id="mea4f32cbe4" d="M 0 0 
L -3.5 0 
" style="stroke: #000000; stroke-width: 0.8"/>
      </defs>
      <g>
       <use xlink:href="#mea4f32cbe4" x="125.28" y="534.19826" style="stroke: #000000; stroke-width: 0.8"/>
      </g>
     </g>
     <g id="text_9">
      <!-- −150 -->
      <g transform="translate(35.878438 545.595916)scale(0.3 -0.3)">
       <defs>
        <path id="DejaVuSans-31" d="M 794 531 
L 1825 531 
L 1825 4091 
L 703 3866 
L 703 4441 
L 1819 4666 
L 2450 4666 
L 2450 531 
L 3481 531 
L 3481 0 
L 794 0 
L 794 531 
z
" transform="scale(0.015625)"/>
       </defs>
       <use xlink:href="#DejaVuSans-2212"/>
       <use xlink:href="#DejaVuSans-31" x="83.789062"/>
       <use xlink:href="#DejaVuSans-35" x="147.412109"/>
       <use xlink:href="#DejaVuSans-30" x="211.035156"/>
      </g>
     </g>
    </g>
    <g id="ytick_2">
     <g id="line2d_9">
      <g>
       <use xlink:href="#mea4f32cbe4" x="125.28" y="451.630845" style="stroke: #000000; stroke-width: 0.8"/>
      </g>
     </g>
     <g id="text_10">
      <!-- −100 -->
      <g transform="translate(35.878438 463.028501)scale(0.3 -0.3)">
       <use xlink:href="#DejaVuSans-2212"/>
       <use xlink:href="#DejaVuSans-31" x="83.789062"/>
       <use xlink:href="#DejaVuSans-30" x="147.412109"/>
       <use xlink:href="#DejaVuSans-30" x="211.035156"/>
      </g>
     </g>
    </g>
    <g id="ytick_3">
     <g id="line2d_10">
      <g>
       <use xlink:href="#mea4f32cbe4" x="125.28" y="369.06343" style="stroke: #000000; stroke-width: 0.8"/>
      </g>
     </g>
     <g id="text_11">
      <!-- −50 -->
      <g transform="translate(54.965938 380.461086)scale(0.3 -0.3)">
       <use xlink:href="#DejaVuSans-2212"/>
       <use xlink:href="#DejaVuSans-35" x="83.789062"/>
       <use xlink:href="#DejaVuSans-30" x="147.412109"/>
      </g>
     </g>
    </g>
    <g id="ytick_4">
     <g id="line2d_11">
      <g>
       <use xlink:href="#mea4f32cbe4" x="125.28" y="286.496014" style="stroke: #000000; stroke-width: 0.8"/>
      </g>
     </g>
     <g id="text_12">
      <!-- 0 -->
      <g transform="translate(99.1925 297.893671)scale(0.3 -0.3)">
       <use xlink:href="#DejaVuSans-30"/>
      </g>
     </g>
    </g>
    <g id="ytick_5">
     <g id="line2d_12">
      <g>
       <use xlink:href="#mea4f32cbe4" x="125.28" y="203.928599" style="stroke: #000000; stroke-width: 0.8"/>
      </g>
     </g>
     <g id="text_13">
      <!-- 50 -->
      <g transform="translate(80.105 215.326255)scale(0.3 -0.3)">
       <use xlink:href="#DejaVuSans-35"/>
       <use xlink:href="#DejaVuSans-30" x="63.623047"/>
      </g>
     </g>
    </g>
    <g id="ytick_6">
     <g id="line2d_13">
      <g>
       <use xlink:href="#mea4f32cbe4" x="125.28" y="121.361184" style="stroke: #000000; stroke-width: 0.8"/>
      </g>
     </g>
     <g id="text_14">
      <!-- 100 -->
      <g transform="translate(61.0175 132.75884)scale(0.3 -0.3)">
       <use xlink:href="#DejaVuSans-31"/>
       <use xlink:href="#DejaVuSans-30" x="63.623047"/>
       <use xlink:href="#DejaVuSans-30" x="127.246094"/>
      </g>
     </g>
    </g>
    <g id="text_15">
     <!-- $\Re{W_{1s}}$ (eV) -->
     <g transform="translate(25.639375 399.9312)rotate(-90)scale(0.3 -0.3)">
      <defs>
       <path id="DejaVuSans-Oblique-211c" d="M 4006 -91 
Q 3750 481 3750 978 
Q 3750 1416 3681 1700 
Q 3556 2219 3309 2219 
Q 3178 2219 2891 2084 
L 2516 1909 
L 2516 1288 
Q 2516 644 2194 275 
Q 1872 -91 1434 -91 
Q 994 -91 675 275 
Q 353 644 353 1194 
Q 494 1156 638 1119 
Q 638 738 838 469 
Q 1038 197 1263 197 
Q 1488 197 1684 469 
Q 1884 741 1884 1209 
L 1884 3294 
Q 1884 3759 1684 4034 
Q 1488 4306 1200 4306 
Q 947 4306 744 4034 
Q 544 3766 544 3450 
Q 544 3134 744 2866 
Q 944 2594 1203 2594 
L 1372 2306 
Q 900 2306 581 2672 
Q 259 3041 259 3528 
Q 259 4019 581 4384 
Q 900 4750 1372 4750 
Q 1878 4750 2194 4384 
Q 2288 4275 2338 4175 
L 2997 4481 
Q 3581 4753 3931 4753 
Q 4078 4753 4191 4709 
Q 4584 4556 4584 4003 
Q 4584 3731 4381 3347 
Q 4175 2959 3784 2666 
Q 3966 2666 4119 2513 
Q 4231 2400 4316 2075 
Q 4416 1691 4416 1281 
Q 4416 881 4556 513 
L 5006 722 
L 5138 438 
L 4006 -91 
z
M 2450 3897 
Q 2516 3663 2516 3375 
L 2516 2241 
L 2997 2463 
Q 3447 2672 3688 2997 
Q 3919 3316 3919 3694 
Q 3919 4166 3688 4266 
Q 3613 4297 3516 4297 
Q 3316 4297 2997 4150 
L 2450 3897 
z
" transform="scale(0.015625)"/>
       <path id="DejaVuSans-Oblique-57" d="M 616 4666 
L 1228 4666 
L 1453 697 
L 3213 4666 
L 3916 4666 
L 4147 697 
L 5888 4666 
L 6528 4666 
L 4453 0 
L 3659 0 
L 3444 3891 
L 1697 0 
L 903 0 
L 616 4666 
z
" transform="scale(0.015625)"/>
       <path id="DejaVuSans-Oblique-73" d="M 3200 3397 
L 3091 2853 
Q 2863 2978 2609 3040 
Q 2356 3103 2088 3103 
Q 1634 3103 1373 2948 
Q 1113 2794 1113 2528 
Q 1113 2219 1719 2053 
Q 1766 2041 1788 2034 
L 1972 1978 
Q 2547 1819 2739 1644 
Q 2931 1469 2931 1166 
Q 2931 609 2489 259 
Q 2047 -91 1331 -91 
Q 1053 -91 747 -37 
Q 441 16 72 128 
L 184 722 
Q 500 559 806 475 
Q 1113 391 1394 391 
Q 1816 391 2080 572 
Q 2344 753 2344 1031 
Q 2344 1331 1650 1516 
L 1591 1531 
L 1394 1581 
Q 956 1697 753 1886 
Q 550 2075 550 2369 
Q 550 2928 970 3256 
Q 1391 3584 2113 3584 
Q 2397 3584 2667 3537 
Q 2938 3491 3200 3397 
z
" transform="scale(0.015625)"/>
      </defs>
      <use xlink:href="#DejaVuSans-Oblique-211c" transform="translate(0 0.125)"/>
      <use xlink:href="#DejaVuSans-Oblique-57" transform="translate(81.396484 0.125)"/>
      <use xlink:href="#DejaVuSans-31" transform="translate(180.273438 -16.28125)scale(0.7)"/>
      <use xlink:href="#DejaVuSans-Oblique-73" transform="translate(224.80957 -16.28125)scale(0.7)"/>
      <use xlink:href="#DejaVuSans-20" transform="translate(264.013672 0.125)"/>
      <use xlink:href="#DejaVuSans-28" transform="translate(295.800781 0.125)"/>
      <use xlink:href="#DejaVuSans-65" transform="translate(334.814453 0.125)"/>
      <use xlink:href="#DejaVuSans-56" transform="translate(396.337891 0.125)"/>
      <use xlink:href="#DejaVuSans-29" transform="translate(464.746094 0.125)"/>
     </g>
    </g>
   </g>
   <g id="line2d_14">
    <path d="M 160.586182 305.993874 
L 170.001164 303.492438 
L 174.708655 302.078483 
L 177.0624 301.808845 
L 179.416145 302.512992 
L 181.769891 302.32616 
L 191.184873 299.201104 
L 198.246109 296.667858 
L 202.9536 294.689458 
L 207.661091 292.321304 
L 210.014836 290.930762 
L 212.368582 289.356871 
L 214.722327 287.551729 
L 217.076073 285.450646 
L 219.429818 282.96407 
L 221.783564 279.964669 
L 224.137309 276.266042 
L 226.491055 271.586911 
L 228.8448 265.491002 
L 231.198545 257.295541 
L 233.552291 246.011855 
L 235.906036 231.011793 
L 238.259782 219.211721 
L 240.613527 264.000373 
L 242.967273 374.197065 
L 245.321018 392.100774 
L 247.674764 377.196971 
L 250.028509 363.226604 
L 252.382255 352.979029 
L 254.736 345.507867 
L 257.089745 339.907505 
L 259.443491 335.578519 
L 261.797236 332.138477 
L 264.150982 329.339117 
L 266.504727 327.014552 
L 268.858473 325.050596 
L 271.212218 323.366443 
L 273.565964 321.903471 
L 275.919709 320.618203 
L 280.6272 318.456818 
L 285.334691 316.698413 
L 290.042182 315.228141 
L 294.749673 313.970614 
L 301.810909 312.374738 
L 308.872145 311.02918 
L 318.287127 309.501652 
L 330.055855 307.874113 
L 344.178327 306.168393 
L 370.069527 303.326029 
L 391.253236 300.925481 
L 405.375709 299.097432 
L 414.790691 297.685342 
L 424.205673 296.030472 
L 431.266909 294.55896 
L 438.328145 292.804786 
L 443.035636 291.421111 
L 447.743127 289.807274 
L 452.450618 287.889382 
L 457.158109 285.559343 
L 459.511855 284.191487 
L 461.8656 282.652587 
L 464.219345 280.906442 
L 466.573091 278.906075 
L 468.926836 276.589471 
L 471.280582 273.873163 
L 473.634327 270.642342 
L 475.988073 266.735163 
L 478.341818 261.917156 
L 480.695564 255.83844 
L 483.049309 247.961443 
L 485.403055 237.443969 
L 487.7568 223.001514 
L 490.110545 203.170824 
L 492.464291 180.727167 
L 494.818036 196.766635 
L 497.171782 351.319436 
L 499.525527 433.312195 
L 501.879273 418.936682 
L 504.233018 396.627132 
L 506.586764 379.656077 
L 508.940509 367.38909 
L 511.294255 358.340243 
L 513.648 351.461169 
L 516.001745 346.08099 
L 518.355491 341.768286 
L 520.709236 338.238208 
L 523.062982 335.296966 
L 525.416727 332.808897 
L 527.770473 330.676534 
L 530.124218 328.828219 
L 532.477964 327.210175 
L 534.831709 325.781307 
L 537.185455 324.509697 
L 541.892945 322.342725 
L 546.600436 320.562003 
L 551.307927 319.069829 
L 556.015418 317.798884 
L 563.076655 316.206218 
L 570.137891 314.895246 
L 577.199127 313.793187 
L 586.614109 312.565299 
L 598.382836 311.313002 
L 610.151564 310.285612 
L 624.274036 309.264403 
L 643.104 308.155872 
L 664.287709 307.147297 
L 690.178909 306.14652 
L 720.7776 305.185713 
L 758.437527 304.223532 
L 805.512436 303.246875 
L 864.356073 302.256717 
L 866.709818 302.221103 
L 866.709818 302.221103 
" clip-path="url(#p6d7d17c2d8)" style="fill: none; stroke: #1f77b4; stroke-width: 3; stroke-linecap: square"/>
   </g>
   <g id="line2d_15">
    <path d="M 160.586182 304.501866 
L 172.354909 302.594405 
L 181.769891 300.815614 
L 188.831127 299.250105 
L 193.538618 298.046859 
L 198.246109 296.66833 
L 202.9536 295.053309 
L 207.661091 293.109963 
L 210.014836 291.973054 
L 212.368582 290.693873 
L 214.722327 289.239034 
L 217.076073 287.563981 
L 219.429818 285.607884 
L 221.783564 283.285478 
L 224.137309 280.473451 
L 226.491055 276.986638 
L 228.8448 272.533888 
L 231.198545 266.630179 
L 233.552291 258.405096 
L 235.906036 246.133719 
L 238.259782 225.896099 
L 240.613527 186.943589 
L 242.967273 99.5472 
L 245.321018 549.1152 
L 247.674764 485.108362 
L 250.028509 410.849276 
L 252.382255 378.885065 
L 254.736 361.531003 
L 257.089745 350.678537 
L 259.443491 343.249895 
L 261.797236 337.837908 
L 264.150982 333.711446 
L 266.504727 330.453919 
L 268.858473 327.810865 
L 271.212218 325.618189 
L 273.565964 323.765365 
L 275.919709 322.175244 
L 278.273455 320.79235 
L 280.6272 319.575767 
L 285.334691 317.525343 
L 290.042182 315.851961 
L 294.749673 314.448336 
L 299.457164 313.24402 
L 306.5184 311.709722 
L 313.579636 310.409935 
L 322.994618 308.926033 
L 334.763345 307.332845 
L 351.239564 305.379252 
L 398.314473 299.997811 
L 410.0832 298.360211 
L 419.498182 296.831653 
L 426.559418 295.496702 
L 433.620655 293.933495 
L 438.328145 292.721061 
L 443.035636 291.328896 
L 447.743127 289.703878 
L 452.450618 287.770647 
L 457.158109 285.418562 
L 459.511855 284.035832 
L 461.8656 282.478339 
L 464.219345 280.708542 
L 466.573091 278.677485 
L 468.926836 276.320154 
L 471.280582 273.548374 
L 473.634327 270.239657 
L 475.988073 266.219056 
L 478.341818 261.228521 
L 480.695564 254.872876 
L 483.049309 246.520408 
L 485.403055 235.113209 
L 487.7568 218.809946 
L 490.110545 194.506329 
L 492.464291 159.916065 
L 494.818036 155.691584 
L 497.171782 380.125013 
L 499.525527 463.933086 
L 501.879273 430.386917 
L 504.233018 401.356571 
L 506.586764 381.926903 
L 508.940509 368.612037 
L 511.294255 359.055218 
L 513.648 351.904154 
L 516.001745 346.366668 
L 518.355491 341.957268 
L 520.709236 338.364755 
L 523.062982 335.381532 
L 525.416727 332.86426 
L 527.770473 330.710989 
L 530.124218 328.847326 
L 532.477964 327.217769 
L 534.831709 325.780097 
L 537.185455 324.50164 
L 541.892945 322.32493 
L 546.600436 320.537816 
L 551.307927 319.041255 
L 556.015418 317.767184 
L 563.076655 316.171286 
L 570.137891 314.858143 
L 577.199127 313.754547 
L 586.614109 312.525206 
L 598.382836 311.271657 
L 610.151564 310.243379 
L 624.274036 309.221383 
L 643.104 308.112075 
L 664.287709 307.102838 
L 690.178909 306.101424 
L 720.7776 305.139998 
L 758.437527 304.177166 
L 805.512436 303.199786 
L 864.356073 302.208796 
L 866.709818 302.17315 
L 866.709818 302.17315 
" clip-path="url(#p6d7d17c2d8)" style="fill: none; stroke: #ff7f0e; stroke-width: 3; stroke-linecap: square"/>
   </g>
   <g id="patch_3">
    <path d="M 125.28 571.5936 
L 125.28 77.0688 
" style="fill: none; stroke: #000000; stroke-width: 0.8; stroke-linejoin: miter; stroke-linecap: square"/>
   </g>
   <g id="patch_4">
    <path d="M 902.016 571.5936 
L 902.016 77.0688 
" style="fill: none; stroke: #000000; stroke-width: 0.8; stroke-linejoin: miter; stroke-linecap: square"/>
   </g>
   <g id="patch_5">
    <path d="M 125.28 571.5936 
L 902.016 571.5936 
" style="fill: none; stroke: #000000; stroke-width: 0.8; stroke-linejoin: miter; stroke-linecap: square"/>
   </g>
   <g id="patch_6">
    <path d="M 125.28 77.0688 
L 902.016 77.0688 
" style="fill: none; stroke: #000000; stroke-width: 0.8; stroke-linejoin: miter; stroke-linecap: square"/>
   </g>
   <g id="legend_1">
    <g id="patch_7">
     <path d="M 658.716 189.13755 
L 881.016 189.13755 
Q 887.016 189.13755 887.016 183.13755 
L 887.016 98.0688 
Q 887.016 92.0688 881.016 92.0688 
L 658.716 92.0688 
Q 652.716 92.0688 652.716 98.0688 
L 652.716 183.13755 
Q 652.716 189.13755 658.716 189.13755 
z
" style="fill: #ffffff; opacity: 0.8; stroke: #cccccc; stroke-linejoin: miter"/>
    </g>
    <g id="line2d_16">
     <path d="M 664.716 116.364113 
L 694.716 116.364113 
L 724.716 116.364113 
" style="fill: none; stroke: #1f77b4; stroke-width: 3; stroke-linecap: square"/>
    </g>
    <g id="text_16">
     <!-- $CD$ -->
     <g transform="translate(748.716 126.864113)scale(0.3 -0.3)">
      <defs>
       <path id="DejaVuSans-Oblique-43" d="M 4447 4306 
L 4319 3641 
Q 4019 3944 3683 4091 
Q 3347 4238 2956 4238 
Q 2422 4238 2017 3981 
Q 1613 3725 1319 3200 
Q 1131 2863 1032 2486 
Q 934 2109 934 1728 
Q 934 1091 1264 756 
Q 1594 422 2222 422 
Q 2656 422 3056 561 
Q 3456 700 3834 978 
L 3688 231 
Q 3316 72 2936 -9 
Q 2556 -91 2175 -91 
Q 1278 -91 773 396 
Q 269 884 269 1753 
Q 269 2309 461 2846 
Q 653 3384 1013 3828 
Q 1394 4300 1883 4525 
Q 2372 4750 3022 4750 
Q 3422 4750 3780 4639 
Q 4138 4528 4447 4306 
z
" transform="scale(0.015625)"/>
       <path id="DejaVuSans-Oblique-44" d="M 1081 4666 
L 2438 4666 
Q 3519 4666 4070 4208 
Q 4622 3750 4622 2847 
Q 4622 2250 4412 1698 
Q 4203 1147 3834 769 
Q 3463 381 2891 190 
Q 2319 0 1538 0 
L 172 0 
L 1081 4666 
z
M 1613 4147 
L 909 519 
L 1734 519 
Q 2794 519 3375 1128 
Q 3956 1738 3956 2847 
Q 3956 3519 3581 3833 
Q 3206 4147 2406 4147 
L 1613 4147 
z
" transform="scale(0.015625)"/>
      </defs>
      <use xlink:href="#DejaVuSans-Oblique-43" transform="translate(0 0.78125)"/>
      <use xlink:href="#DejaVuSans-Oblique-44" transform="translate(69.824219 0.78125)"/>
     </g>
    </g>
    <g id="line2d_17">
     <path d="M 664.716 160.398488 
L 694.716 160.398488 
L 724.716 160.398488 
" style="fill: none; stroke: #ff7f0e; stroke-width: 3; stroke-linecap: square"/>
    </g>
    <g id="text_17">
     <!-- $CD$-$WAC$ -->
     <g transform="translate(748.716 170.898488)scale(0.3 -0.3)">
      <defs>
       <path id="DejaVuSans-2d" d="M 313 2009 
L 1997 2009 
L 1997 1497 
L 313 1497 
L 313 2009 
z
" transform="scale(0.015625)"/>
       <path id="DejaVuSans-Oblique-41" d="M 2356 4666 
L 3072 4666 
L 3938 0 
L 3278 0 
L 3084 1197 
L 984 1197 
L 325 0 
L -341 0 
L 2356 4666 
z
M 2584 4044 
L 1275 1722 
L 2988 1722 
L 2584 4044 
z
" transform="scale(0.015625)"/>
      </defs>
      <use xlink:href="#DejaVuSans-Oblique-43" transform="translate(0 0.78125)"/>
      <use xlink:href="#DejaVuSans-Oblique-44" transform="translate(69.824219 0.78125)"/>
      <use xlink:href="#DejaVuSans-2d" transform="translate(146.826172 0.78125)"/>
      <use xlink:href="#DejaVuSans-Oblique-57" transform="translate(182.910156 0.78125)"/>
      <use xlink:href="#DejaVuSans-Oblique-41" transform="translate(281.787109 0.78125)"/>
      <use xlink:href="#DejaVuSans-Oblique-43" transform="translate(350.195312 0.78125)"/>
     </g>
    </g>
   </g>
  </g>
 </g>
 <defs>
  <clipPath id="p6d7d17c2d8">
   <rect x="125.28" y="77.0688" width="776.736" height="494.5248"/>
  </clipPath>
 </defs>
</svg>
