<?xml version="1.0" encoding="utf-8" standalone="no"?>
<!DOCTYPE svg PUBLIC "-//W3C//DTD SVG 1.1//EN"
  "http://www.w3.org/Graphics/SVG/1.1/DTD/svg11.dtd">
<svg xmlns:xlink="http://www.w3.org/1999/xlink" width="777.6pt" height="641.52pt" viewBox="0 0 777.6 641.52" xmlns="http://www.w3.org/2000/svg" version="1.1">
 <metadata>
  <rdf:RDF xmlns:dc="http://purl.org/dc/elements/1.1/" xmlns:cc="http://creativecommons.org/ns#" xmlns:rdf="http://www.w3.org/1999/02/22-rdf-syntax-ns#">
   <cc:Work>
    <dc:type rdf:resource="http://purl.org/dc/dcmitype/StillImage"/>
    <dc:date>1980-01-01T00:00:00+00:00</dc:date>
    <dc:format>image/svg+xml</dc:format>
    <dc:creator>
     <cc:Agent>
      <dc:title>Matplotlib v3.5.2, https://matplotlib.org/</dc:title>
     </cc:Agent>
    </dc:creator>
   </cc:Work>
  </rdf:RDF>
 </metadata>
 <defs>
  <style type="text/css">*{stroke-linejoin: round; stroke-linecap: butt}</style>
 </defs>
 <g id="figure_1">
  <g id="patch_1">
   <path d="M 0 641.52 
L 777.6 641.52 
L 777.6 0 
L 0 0 
z
" style="fill: #ffffff"/>
  </g>
  <g id="axes_1">
   <g id="patch_2">
    <path d="M 97.2 570.9528 
L 699.84 570.9528 
L 699.84 76.9824 
L 97.2 76.9824 
z
" style="fill: #ffffff"/>
   </g>
   <g id="matplotlib.axis_1">
    <g id="xtick_1">
     <g id="line2d_1">
      <defs>
       <path id="m0319df9f5e" d="M 0 0 
L 0 3.5 
" style="stroke: #000000; stroke-width: 0.8"/>
      </defs>
      <g>
       <use xlink:href="#m0319df9f5e" x="124.592727" y="570.9528" style="stroke: #000000; stroke-width: 0.8"/>
      </g>
     </g>
     <g id="text_1">
      <!-- −550 -->
      <g transform="translate(83.391946 600.748112)scale(0.3 -0.3)">
       <defs>
        <path id="DejaVuSans-2212" d="M 678 2272 
L 4684 2272 
L 4684 1741 
L 678 1741 
L 678 2272 
z
" transform="scale(0.015625)"/>
        <path id="DejaVuSans-35" d="M 691 4666 
L 3169 4666 
L 3169 4134 
L 1269 4134 
L 1269 2991 
Q 1406 3038 1543 3061 
Q 1681 3084 1819 3084 
Q 2600 3084 3056 2656 
Q 3513 2228 3513 1497 
Q 3513 744 3044 326 
Q 2575 -91 1722 -91 
Q 1428 -91 1123 -41 
Q 819 9 494 109 
L 494 744 
Q 775 591 1075 516 
Q 1375 441 1709 441 
Q 2250 441 2565 725 
Q 2881 1009 2881 1497 
Q 2881 1984 2565 2268 
Q 2250 2553 1709 2553 
Q 1456 2553 1204 2497 
Q 953 2441 691 2322 
L 691 4666 
z
" transform="scale(0.015625)"/>
        <path id="DejaVuSans-30" d="M 2034 4250 
Q 1547 4250 1301 3770 
Q 1056 3291 1056 2328 
Q 1056 1369 1301 889 
Q 1547 409 2034 409 
Q 2525 409 2770 889 
Q 3016 1369 3016 2328 
Q 3016 3291 2770 3770 
Q 2525 4250 2034 4250 
z
M 2034 4750 
Q 2819 4750 3233 4129 
Q 3647 3509 3647 2328 
Q 3647 1150 3233 529 
Q 2819 -91 2034 -91 
Q 1250 -91 836 529 
Q 422 1150 422 2328 
Q 422 3509 836 4129 
Q 1250 4750 2034 4750 
z
" transform="scale(0.015625)"/>
       </defs>
       <use xlink:href="#DejaVuSans-2212"/>
       <use xlink:href="#DejaVuSans-35" x="83.789062"/>
       <use xlink:href="#DejaVuSans-35" x="147.412109"/>
       <use xlink:href="#DejaVuSans-30" x="211.035156"/>
      </g>
     </g>
    </g>
    <g id="xtick_2">
     <g id="line2d_2">
      <g>
       <use xlink:href="#m0319df9f5e" x="307.150057" y="570.9528" style="stroke: #000000; stroke-width: 0.8"/>
      </g>
     </g>
     <g id="text_2">
      <!-- −540 -->
      <g transform="translate(265.949275 600.748112)scale(0.3 -0.3)">
       <defs>
        <path id="DejaVuSans-34" d="M 2419 4116 
L 825 1625 
L 2419 1625 
L 2419 4116 
z
M 2253 4666 
L 3047 4666 
L 3047 1625 
L 3713 1625 
L 3713 1100 
L 3047 1100 
L 3047 0 
L 2419 0 
L 2419 1100 
L 313 1100 
L 313 1709 
L 2253 4666 
z
" transform="scale(0.015625)"/>
       </defs>
       <use xlink:href="#DejaVuSans-2212"/>
       <use xlink:href="#DejaVuSans-35" x="83.789062"/>
       <use xlink:href="#DejaVuSans-34" x="147.412109"/>
       <use xlink:href="#DejaVuSans-30" x="211.035156"/>
      </g>
     </g>
    </g>
    <g id="xtick_3">
     <g id="line2d_3">
      <g>
       <use xlink:href="#m0319df9f5e" x="489.707386" y="570.9528" style="stroke: #000000; stroke-width: 0.8"/>
      </g>
     </g>
     <g id="text_3">
      <!-- −530 -->
      <g transform="translate(448.506605 600.748112)scale(0.3 -0.3)">
       <defs>
        <path id="DejaVuSans-33" d="M 2597 2516 
Q 3050 2419 3304 2112 
Q 3559 1806 3559 1356 
Q 3559 666 3084 287 
Q 2609 -91 1734 -91 
Q 1441 -91 1130 -33 
Q 819 25 488 141 
L 488 750 
Q 750 597 1062 519 
Q 1375 441 1716 441 
Q 2309 441 2620 675 
Q 2931 909 2931 1356 
Q 2931 1769 2642 2001 
Q 2353 2234 1838 2234 
L 1294 2234 
L 1294 2753 
L 1863 2753 
Q 2328 2753 2575 2939 
Q 2822 3125 2822 3475 
Q 2822 3834 2567 4026 
Q 2313 4219 1838 4219 
Q 1578 4219 1281 4162 
Q 984 4106 628 3988 
L 628 4550 
Q 988 4650 1302 4700 
Q 1616 4750 1894 4750 
Q 2613 4750 3031 4423 
Q 3450 4097 3450 3541 
Q 3450 3153 3228 2886 
Q 3006 2619 2597 2516 
z
" transform="scale(0.015625)"/>
       </defs>
       <use xlink:href="#DejaVuSans-2212"/>
       <use xlink:href="#DejaVuSans-35" x="83.789062"/>
       <use xlink:href="#DejaVuSans-33" x="147.412109"/>
       <use xlink:href="#DejaVuSans-30" x="211.035156"/>
      </g>
     </g>
    </g>
    <g id="xtick_4">
     <g id="line2d_4">
      <g>
       <use xlink:href="#m0319df9f5e" x="672.264715" y="570.9528" style="stroke: #000000; stroke-width: 0.8"/>
      </g>
     </g>
     <g id="text_4">
      <!-- −520 -->
      <g transform="translate(631.063934 600.748112)scale(0.3 -0.3)">
       <defs>
        <path id="DejaVuSans-32" d="M 1228 531 
L 3431 531 
L 3431 0 
L 469 0 
L 469 531 
Q 828 903 1448 1529 
Q 2069 2156 2228 2338 
Q 2531 2678 2651 2914 
Q 2772 3150 2772 3378 
Q 2772 3750 2511 3984 
Q 2250 4219 1831 4219 
Q 1534 4219 1204 4116 
Q 875 4013 500 3803 
L 500 4441 
Q 881 4594 1212 4672 
Q 1544 4750 1819 4750 
Q 2544 4750 2975 4387 
Q 3406 4025 3406 3419 
Q 3406 3131 3298 2873 
Q 3191 2616 2906 2266 
Q 2828 2175 2409 1742 
Q 1991 1309 1228 531 
z
" transform="scale(0.015625)"/>
       </defs>
       <use xlink:href="#DejaVuSans-2212"/>
       <use xlink:href="#DejaVuSans-35" x="83.789062"/>
       <use xlink:href="#DejaVuSans-32" x="147.412109"/>
       <use xlink:href="#DejaVuSans-30" x="211.035156"/>
      </g>
     </g>
    </g>
    <g id="text_5">
     <!-- $\omega$ (eV) -->
     <g transform="translate(349.92 633.782488)scale(0.3 -0.3)">
      <defs>
       <path id="DejaVuSans-Oblique-3c9" d="M 1369 -91 
Q 72 -91 434 1766 
Q 575 2500 1256 3500 
L 1875 3500 
Q 1231 2500 1088 1750 
Q 819 397 1519 397 
Q 2166 397 2478 2078 
L 3009 2078 
Q 2669 388 3316 397 
Q 4013 403 4275 1750 
Q 4419 2500 4169 3500 
L 4788 3500 
Q 5075 2500 4934 1766 
Q 4578 -94 3278 -91 
Q 2428 -88 2503 844 
Q 2194 -91 1369 -91 
z
" transform="scale(0.015625)"/>
       <path id="DejaVuSans-20" transform="scale(0.015625)"/>
       <path id="DejaVuSans-28" d="M 1984 4856 
Q 1566 4138 1362 3434 
Q 1159 2731 1159 2009 
Q 1159 1288 1364 580 
Q 1569 -128 1984 -844 
L 1484 -844 
Q 1016 -109 783 600 
Q 550 1309 550 2009 
Q 550 2706 781 3412 
Q 1013 4119 1484 4856 
L 1984 4856 
z
" transform="scale(0.015625)"/>
       <path id="DejaVuSans-65" d="M 3597 1894 
L 3597 1613 
L 953 1613 
Q 991 1019 1311 708 
Q 1631 397 2203 397 
Q 2534 397 2845 478 
Q 3156 559 3463 722 
L 3463 178 
Q 3153 47 2828 -22 
Q 2503 -91 2169 -91 
Q 1331 -91 842 396 
Q 353 884 353 1716 
Q 353 2575 817 3079 
Q 1281 3584 2069 3584 
Q 2775 3584 3186 3129 
Q 3597 2675 3597 1894 
z
M 3022 2063 
Q 3016 2534 2758 2815 
Q 2500 3097 2075 3097 
Q 1594 3097 1305 2825 
Q 1016 2553 972 2059 
L 3022 2063 
z
" transform="scale(0.015625)"/>
       <path id="DejaVuSans-56" d="M 1831 0 
L 50 4666 
L 709 4666 
L 2188 738 
L 3669 4666 
L 4325 4666 
L 2547 0 
L 1831 0 
z
" transform="scale(0.015625)"/>
       <path id="DejaVuSans-29" d="M 513 4856 
L 1013 4856 
Q 1481 4119 1714 3412 
Q 1947 2706 1947 2009 
Q 1947 1309 1714 600 
Q 1481 -109 1013 -844 
L 513 -844 
Q 928 -128 1133 580 
Q 1338 1288 1338 2009 
Q 1338 2731 1133 3434 
Q 928 4138 513 4856 
z
" transform="scale(0.015625)"/>
      </defs>
      <use xlink:href="#DejaVuSans-Oblique-3c9" transform="translate(0 0.125)"/>
      <use xlink:href="#DejaVuSans-20" transform="translate(83.740234 0.125)"/>
      <use xlink:href="#DejaVuSans-28" transform="translate(115.527344 0.125)"/>
      <use xlink:href="#DejaVuSans-65" transform="translate(154.541016 0.125)"/>
      <use xlink:href="#DejaVuSans-56" transform="translate(216.064453 0.125)"/>
      <use xlink:href="#DejaVuSans-29" transform="translate(284.472656 0.125)"/>
     </g>
    </g>
   </g>
   <g id="matplotlib.axis_2">
    <g id="ytick_1">
     <g id="line2d_5">
      <defs>
       <path id="m5564e0e4e6" d="M 0 0 
L -3.5 0 
" style="stroke: #000000; stroke-width: 0.8"/>
      </defs>
      <g>
       <use xlink:href="#m5564e0e4e6" x="97.2" y="511.457654" style="stroke: #000000; stroke-width: 0.8"/>
      </g>
     </g>
     <g id="text_6">
      <!-- 15 -->
      <g transform="translate(52.025 522.85531)scale(0.3 -0.3)">
       <defs>
        <path id="DejaVuSans-31" d="M 794 531 
L 1825 531 
L 1825 4091 
L 703 3866 
L 703 4441 
L 1819 4666 
L 2450 4666 
L 2450 531 
L 3481 531 
L 3481 0 
L 794 0 
L 794 531 
z
" transform="scale(0.015625)"/>
       </defs>
       <use xlink:href="#DejaVuSans-31"/>
       <use xlink:href="#DejaVuSans-35" x="63.623047"/>
      </g>
     </g>
    </g>
    <g id="ytick_2">
     <g id="line2d_6">
      <g>
       <use xlink:href="#m5564e0e4e6" x="97.2" y="413.969983" style="stroke: #000000; stroke-width: 0.8"/>
      </g>
     </g>
     <g id="text_7">
      <!-- 20 -->
      <g transform="translate(52.025 425.36764)scale(0.3 -0.3)">
       <use xlink:href="#DejaVuSans-32"/>
       <use xlink:href="#DejaVuSans-30" x="63.623047"/>
      </g>
     </g>
    </g>
    <g id="ytick_3">
     <g id="line2d_7">
      <g>
       <use xlink:href="#m5564e0e4e6" x="97.2" y="316.482313" style="stroke: #000000; stroke-width: 0.8"/>
      </g>
     </g>
     <g id="text_8">
      <!-- 25 -->
      <g transform="translate(52.025 327.879969)scale(0.3 -0.3)">
       <use xlink:href="#DejaVuSans-32"/>
       <use xlink:href="#DejaVuSans-35" x="63.623047"/>
      </g>
     </g>
    </g>
    <g id="ytick_4">
     <g id="line2d_8">
      <g>
       <use xlink:href="#m5564e0e4e6" x="97.2" y="218.994643" style="stroke: #000000; stroke-width: 0.8"/>
      </g>
     </g>
     <g id="text_9">
      <!-- 30 -->
      <g transform="translate(52.025 230.392299)scale(0.3 -0.3)">
       <use xlink:href="#DejaVuSans-33"/>
       <use xlink:href="#DejaVuSans-30" x="63.623047"/>
      </g>
     </g>
    </g>
    <g id="ytick_5">
     <g id="line2d_9">
      <g>
       <use xlink:href="#m5564e0e4e6" x="97.2" y="121.506973" style="stroke: #000000; stroke-width: 0.8"/>
      </g>
     </g>
     <g id="text_10">
      <!-- 35 -->
      <g transform="translate(52.025 132.904629)scale(0.3 -0.3)">
       <use xlink:href="#DejaVuSans-33"/>
       <use xlink:href="#DejaVuSans-35" x="63.623047"/>
      </g>
     </g>
    </g>
    <g id="text_11">
     <!-- $\Re{\Sigma^c_{1s}}$ (eV) -->
     <g transform="translate(39.325 394.4676)rotate(-90)scale(0.3 -0.3)">
      <defs>
       <path id="DejaVuSans-Oblique-211c" d="M 4006 -91 
Q 3750 481 3750 978 
Q 3750 1416 3681 1700 
Q 3556 2219 3309 2219 
Q 3178 2219 2891 2084 
L 2516 1909 
L 2516 1288 
Q 2516 644 2194 275 
Q 1872 -91 1434 -91 
Q 994 -91 675 275 
Q 353 644 353 1194 
Q 494 1156 638 1119 
Q 638 738 838 469 
Q 1038 197 1263 197 
Q 1488 197 1684 469 
Q 1884 741 1884 1209 
L 1884 3294 
Q 1884 3759 1684 4034 
Q 1488 4306 1200 4306 
Q 947 4306 744 4034 
Q 544 3766 544 3450 
Q 544 3134 744 2866 
Q 944 2594 1203 2594 
L 1372 2306 
Q 900 2306 581 2672 
Q 259 3041 259 3528 
Q 259 4019 581 4384 
Q 900 4750 1372 4750 
Q 1878 4750 2194 4384 
Q 2288 4275 2338 4175 
L 2997 4481 
Q 3581 4753 3931 4753 
Q 4078 4753 4191 4709 
Q 4584 4556 4584 4003 
Q 4584 3731 4381 3347 
Q 4175 2959 3784 2666 
Q 3966 2666 4119 2513 
Q 4231 2400 4316 2075 
Q 4416 1691 4416 1281 
Q 4416 881 4556 513 
L 5006 722 
L 5138 438 
L 4006 -91 
z
M 2450 3897 
Q 2516 3663 2516 3375 
L 2516 2241 
L 2997 2463 
Q 3447 2672 3688 2997 
Q 3919 3316 3919 3694 
Q 3919 4166 3688 4266 
Q 3613 4297 3516 4297 
Q 3316 4297 2997 4150 
L 2450 3897 
z
" transform="scale(0.015625)"/>
       <path id="DejaVuSans-3a3" d="M 1353 531 
L 3634 531 
L 3634 0 
L 628 0 
L 628 531 
L 2125 2481 
L 628 4134 
L 628 4666 
L 3578 4666 
L 3578 4134 
L 1353 4134 
L 2850 2494 
L 1353 531 
z
" transform="scale(0.015625)"/>
       <path id="DejaVuSans-Oblique-63" d="M 3431 3366 
L 3316 2797 
Q 3109 2947 2876 3022 
Q 2644 3097 2394 3097 
Q 2119 3097 1870 3000 
Q 1622 2903 1453 2725 
Q 1184 2453 1037 2087 
Q 891 1722 891 1331 
Q 891 859 1127 628 
Q 1363 397 1844 397 
Q 2081 397 2348 469 
Q 2616 541 2906 684 
L 2797 116 
Q 2547 13 2283 -39 
Q 2019 -91 1741 -91 
Q 1044 -91 669 257 
Q 294 606 294 1253 
Q 294 1797 489 2255 
Q 684 2713 1069 3078 
Q 1331 3328 1684 3456 
Q 2038 3584 2456 3584 
Q 2700 3584 2940 3529 
Q 3181 3475 3431 3366 
z
" transform="scale(0.015625)"/>
       <path id="DejaVuSans-Oblique-73" d="M 3200 3397 
L 3091 2853 
Q 2863 2978 2609 3040 
Q 2356 3103 2088 3103 
Q 1634 3103 1373 2948 
Q 1113 2794 1113 2528 
Q 1113 2219 1719 2053 
Q 1766 2041 1788 2034 
L 1972 1978 
Q 2547 1819 2739 1644 
Q 2931 1469 2931 1166 
Q 2931 609 2489 259 
Q 2047 -91 1331 -91 
Q 1053 -91 747 -37 
Q 441 16 72 128 
L 184 722 
Q 500 559 806 475 
Q 1113 391 1394 391 
Q 1816 391 2080 572 
Q 2344 753 2344 1031 
Q 2344 1331 1650 1516 
L 1591 1531 
L 1394 1581 
Q 956 1697 753 1886 
Q 550 2075 550 2369 
Q 550 2928 970 3256 
Q 1391 3584 2113 3584 
Q 2397 3584 2667 3537 
Q 2938 3491 3200 3397 
z
" transform="scale(0.015625)"/>
      </defs>
      <use xlink:href="#DejaVuSans-Oblique-211c" transform="translate(0 0.51875)"/>
      <use xlink:href="#DejaVuSans-3a3" transform="translate(81.396484 0.51875)"/>
      <use xlink:href="#DejaVuSans-Oblique-63" transform="translate(145.537109 38.8)scale(0.7)"/>
      <use xlink:href="#DejaVuSans-31" transform="translate(145.537109 -26.825)scale(0.7)"/>
      <use xlink:href="#DejaVuSans-Oblique-73" transform="translate(190.073242 -26.825)scale(0.7)"/>
      <use xlink:href="#DejaVuSans-20" transform="translate(229.277344 0.51875)"/>
      <use xlink:href="#DejaVuSans-28" transform="translate(261.064453 0.51875)"/>
      <use xlink:href="#DejaVuSans-65" transform="translate(300.078125 0.51875)"/>
      <use xlink:href="#DejaVuSans-56" transform="translate(361.601562 0.51875)"/>
      <use xlink:href="#DejaVuSans-29" transform="translate(430.009766 0.51875)"/>
     </g>
    </g>
   </g>
   <g id="line2d_10">
    <path d="M 124.592727 309.313681 
L 128.791546 315.841668 
L 131.89502 321.057886 
L 134.450823 325.778695 
L 136.641511 330.297219 
L 138.467084 334.553213 
L 140.1101 338.93144 
L 141.570559 343.438987 
L 142.84846 348.049361 
L 144.126362 353.535864 
L 145.221705 359.223164 
L 146.317049 366.219188 
L 147.229836 373.487217 
L 148.142623 382.670309 
L 148.872852 392.015115 
L 149.603081 403.956792 
L 150.333311 419.709255 
L 151.06354 441.125 
L 151.793769 470.339104 
L 152.706556 508.895626 
L 152.889113 509.696285 
L 153.071671 502.722357 
L 153.254228 483.6114 
L 153.619343 394.876719 
L 154.349572 168.066434 
L 154.714687 138.006085 
L 154.897244 137.836033 
L 155.262359 149.889412 
L 156.54026 205.060804 
L 157.270489 226.646542 
L 158.000719 242.562492 
L 158.913505 257.171008 
L 159.826292 267.974687 
L 160.739078 276.303604 
L 161.834422 284.122898 
L 162.929766 290.326144 
L 164.207668 296.1688 
L 165.485569 300.960455 
L 166.946028 305.529565 
L 168.406486 309.400625 
L 170.049502 313.148431 
L 171.875076 316.757841 
L 173.883206 320.231258 
L 176.073894 323.580917 
L 178.629697 327.059443 
L 181.368057 330.404579 
L 184.471531 333.839656 
L 187.940121 337.34247 
L 191.773824 340.901716 
L 196.1552 344.663751 
L 201.084248 348.596811 
L 206.560968 352.678715 
L 212.58536 356.893159 
L 219.339981 361.344124 
L 226.824832 366.001536 
L 234.857354 370.734897 
L 243.620106 375.636633 
L 252.93053 380.589841 
L 262.971183 385.677765 
L 273.559508 390.794238 
L 284.878062 396.014577 
L 296.744289 401.242034 
L 309.340745 406.545277 
L 322.484872 411.836183 
L 336.359229 417.177807 
L 350.781258 422.490008 
L 365.933517 427.831011 
L 381.633447 433.12805 
L 398.063607 438.435111 
L 415.223996 443.741453 
L 432.932057 448.9842 
L 451.370347 454.21243 
L 470.721424 459.466176 
L 490.80273 464.685451 
L 511.614266 469.863963 
L 533.338588 475.038703 
L 555.793139 480.158615 
L 579.160477 485.258679 
L 603.440602 490.330463 
L 628.816071 495.402181 
L 655.104326 500.428465 
L 672.447273 503.626009 
L 672.447273 503.626009 
" clip-path="url(#p15ccf3e599)" style="fill: none; stroke: #1f77b4; stroke-width: 3; stroke-linecap: square"/>
   </g>
   <g id="line2d_11">
    <path d="M 124.592727 310.870205 
L 128.791546 317.288961 
L 131.89502 322.416361 
L 134.450823 327.059317 
L 136.641511 331.505781 
L 138.467084 335.695304 
L 140.1101 340.00555 
L 141.570559 344.442607 
L 142.84846 348.979714 
L 144.126362 354.377182 
L 145.221705 359.970461 
L 146.317049 366.850159 
L 147.229836 374.000062 
L 148.142623 383.045771 
L 148.872852 392.27659 
L 149.603081 404.136004 
L 150.333311 419.954707 
L 151.06354 441.996697 
L 151.611212 464.812258 
L 152.341441 507.041249 
L 152.889113 542.376197 
L 153.071671 548.4996 
L 153.254228 544.959272 
L 153.436785 523.749438 
L 153.619343 475.633582 
L 154.532129 110.683705 
L 154.714687 99.4356 
L 154.897244 101.65588 
L 155.262359 122.581529 
L 156.175145 179.626303 
L 156.905375 210.376225 
L 157.635604 231.582673 
L 158.365833 246.855516 
L 159.27862 260.777798 
L 160.191407 271.074781 
L 161.104193 279.033431 
L 162.199537 286.531072 
L 163.294881 292.50157 
L 164.572782 298.145647 
L 165.850684 302.790435 
L 167.311142 307.233298 
L 168.771601 311.0079 
L 170.414617 314.67124 
L 172.24019 318.207196 
L 174.248321 321.616748 
L 176.439009 324.910637 
L 178.994811 328.336725 
L 181.733171 331.636181 
L 184.836646 335.028742 
L 188.305235 338.492454 
L 192.321496 342.177411 
L 196.702872 345.895206 
L 201.63192 349.788637 
L 206.743525 353.553593 
L 210.029557 355.73417 
L 211.855131 356.693038 
L 213.863261 357.70894 
L 215.506277 358.887658 
L 219.339981 361.669667 
L 223.903914 364.649986 
L 230.293421 368.543416 
L 237.595714 372.734898 
L 252.747972 381.025403 
L 263.88397 386.610088 
L 274.837409 391.850064 
L 285.243177 396.595407 
L 296.561732 401.561487 
L 309.158187 406.844987 
L 322.484872 412.189696 
L 336.359229 417.509019 
L 350.781258 422.800973 
L 365.933517 428.12255 
L 381.816004 433.46132 
L 398.246164 438.748398 
L 415.406553 444.035752 
L 433.297171 449.313619 
L 451.918019 454.573167 
L 471.269096 459.806449 
L 491.350402 465.006349 
L 512.344495 470.21082 
L 534.068817 475.366201 
L 556.705926 480.508393 
L 580.255821 485.628135 
L 604.718504 490.717179 
L 630.093972 495.768226 
L 656.564785 500.808861 
L 672.447273 503.728649 
L 672.447273 503.728649 
" clip-path="url(#p15ccf3e599)" style="fill: none; stroke: #ff7f0e; stroke-width: 3; stroke-linecap: square"/>
   </g>
   <g id="patch_3">
    <path d="M 97.2 570.9528 
L 97.2 76.9824 
" style="fill: none; stroke: #000000; stroke-width: 0.8; stroke-linejoin: miter; stroke-linecap: square"/>
   </g>
   <g id="patch_4">
    <path d="M 699.84 570.9528 
L 699.84 76.9824 
" style="fill: none; stroke: #000000; stroke-width: 0.8; stroke-linejoin: miter; stroke-linecap: square"/>
   </g>
   <g id="patch_5">
    <path d="M 97.2 570.9528 
L 699.84 570.9528 
" style="fill: none; stroke: #000000; stroke-width: 0.8; stroke-linejoin: miter; stroke-linecap: square"/>
   </g>
   <g id="patch_6">
    <path d="M 97.2 76.9824 
L 699.84 76.9824 
" style="fill: none; stroke: #000000; stroke-width: 0.8; stroke-linejoin: miter; stroke-linecap: square"/>
   </g>
   <g id="legend_1">
    <g id="patch_7">
     <path d="M 456.54 189.05115 
L 678.84 189.05115 
Q 684.84 189.05115 684.84 183.05115 
L 684.84 97.9824 
Q 684.84 91.9824 678.84 91.9824 
L 456.54 91.9824 
Q 450.54 91.9824 450.54 97.9824 
L 450.54 183.05115 
Q 450.54 189.05115 456.54 189.05115 
z
" style="fill: #ffffff; opacity: 0.8; stroke: #cccccc; stroke-linejoin: miter"/>
    </g>
    <g id="line2d_12">
     <path d="M 462.54 116.277713 
L 492.54 116.277713 
L 522.54 116.277713 
" style="fill: none; stroke: #1f77b4; stroke-width: 3; stroke-linecap: square"/>
    </g>
    <g id="text_12">
     <!-- $CD$ -->
     <g transform="translate(546.54 126.777713)scale(0.3 -0.3)">
      <defs>
       <path id="DejaVuSans-Oblique-43" d="M 4447 4306 
L 4319 3641 
Q 4019 3944 3683 4091 
Q 3347 4238 2956 4238 
Q 2422 4238 2017 3981 
Q 1613 3725 1319 3200 
Q 1131 2863 1032 2486 
Q 934 2109 934 1728 
Q 934 1091 1264 756 
Q 1594 422 2222 422 
Q 2656 422 3056 561 
Q 3456 700 3834 978 
L 3688 231 
Q 3316 72 2936 -9 
Q 2556 -91 2175 -91 
Q 1278 -91 773 396 
Q 269 884 269 1753 
Q 269 2309 461 2846 
Q 653 3384 1013 3828 
Q 1394 4300 1883 4525 
Q 2372 4750 3022 4750 
Q 3422 4750 3780 4639 
Q 4138 4528 4447 4306 
z
" transform="scale(0.015625)"/>
       <path id="DejaVuSans-Oblique-44" d="M 1081 4666 
L 2438 4666 
Q 3519 4666 4070 4208 
Q 4622 3750 4622 2847 
Q 4622 2250 4412 1698 
Q 4203 1147 3834 769 
Q 3463 381 2891 190 
Q 2319 0 1538 0 
L 172 0 
L 1081 4666 
z
M 1613 4147 
L 909 519 
L 1734 519 
Q 2794 519 3375 1128 
Q 3956 1738 3956 2847 
Q 3956 3519 3581 3833 
Q 3206 4147 2406 4147 
L 1613 4147 
z
" transform="scale(0.015625)"/>
      </defs>
      <use xlink:href="#DejaVuSans-Oblique-43" transform="translate(0 0.78125)"/>
      <use xlink:href="#DejaVuSans-Oblique-44" transform="translate(69.824219 0.78125)"/>
     </g>
    </g>
    <g id="line2d_13">
     <path d="M 462.54 160.312088 
L 492.54 160.312088 
L 522.54 160.312088 
" style="fill: none; stroke: #ff7f0e; stroke-width: 3; stroke-linecap: square"/>
    </g>
    <g id="text_13">
     <!-- $CD$-$WAC$ -->
     <g transform="translate(546.54 170.812088)scale(0.3 -0.3)">
      <defs>
       <path id="DejaVuSans-2d" d="M 313 2009 
L 1997 2009 
L 1997 1497 
L 313 1497 
L 313 2009 
z
" transform="scale(0.015625)"/>
       <path id="DejaVuSans-Oblique-57" d="M 616 4666 
L 1228 4666 
L 1453 697 
L 3213 4666 
L 3916 4666 
L 4147 697 
L 5888 4666 
L 6528 4666 
L 4453 0 
L 3659 0 
L 3444 3891 
L 1697 0 
L 903 0 
L 616 4666 
z
" transform="scale(0.015625)"/>
       <path id="DejaVuSans-Oblique-41" d="M 2356 4666 
L 3072 4666 
L 3938 0 
L 3278 0 
L 3084 1197 
L 984 1197 
L 325 0 
L -341 0 
L 2356 4666 
z
M 2584 4044 
L 1275 1722 
L 2988 1722 
L 2584 4044 
z
" transform="scale(0.015625)"/>
      </defs>
      <use xlink:href="#DejaVuSans-Oblique-43" transform="translate(0 0.78125)"/>
      <use xlink:href="#DejaVuSans-Oblique-44" transform="translate(69.824219 0.78125)"/>
      <use xlink:href="#DejaVuSans-2d" transform="translate(146.826172 0.78125)"/>
      <use xlink:href="#DejaVuSans-Oblique-57" transform="translate(182.910156 0.78125)"/>
      <use xlink:href="#DejaVuSans-Oblique-41" transform="translate(281.787109 0.78125)"/>
      <use xlink:href="#DejaVuSans-Oblique-43" transform="translate(350.195312 0.78125)"/>
     </g>
    </g>
   </g>
  </g>
 </g>
 <defs>
  <clipPath id="p15ccf3e599">
   <rect x="97.2" y="76.9824" width="602.64" height="493.9704"/>
  </clipPath>
 </defs>
</svg>
